<mxfile modified="2021-06-03T06:29:01.731Z" host="app.diagrams.net" agent="5.0 (Windows NT 10.0; Win64; x64) AppleWebKit/537.36 (KHTML, like Gecko) Chrome/86.0.4240.272 Whale/2.9.117.22 Safari/537.36" etag="S3GlX1DoSI_BvwzMehzO" version="14.6.9" type="github">
  <diagram id="WI9T0HZ2pTsCkuznbFz-" name="Page-1">
    <mxGraphModel dx="1372" dy="1587" grid="1" gridSize="10" guides="1" tooltips="1" connect="1" arrows="1" fold="1" page="1" pageScale="1" pageWidth="1169" pageHeight="827" math="0" shadow="0">
      <root>
        <mxCell id="0" />
        <mxCell id="1" parent="0" />
        <mxCell id="TvJVa0th-eADiuJ0yNtB-52" value="&lt;font face=&quot;Verdana&quot;&gt;&lt;span style=&quot;font-size: 20px&quot;&gt;&lt;b&gt;&lt;br&gt;&lt;/b&gt;&lt;/span&gt;&lt;/font&gt;" style="text;html=1;align=center;verticalAlign=middle;resizable=0;points=[];autosize=1;strokeColor=none;fontColor=#FFF7F7;" vertex="1" parent="1">
          <mxGeometry x="550" y="320" width="20" height="20" as="geometry" />
        </mxCell>
        <mxCell id="TvJVa0th-eADiuJ0yNtB-118" value="&lt;font style=&quot;font-size: 15px&quot; face=&quot;Verdana&quot;&gt;&lt;b&gt;Users&lt;/b&gt;&lt;/font&gt;" style="text;html=1;strokeColor=none;fillColor=none;align=center;verticalAlign=middle;whiteSpace=wrap;rounded=0;dashed=1;fontColor=#FFF7F7;" vertex="1" parent="1">
          <mxGeometry x="1057.25" y="219.86" width="40" height="20" as="geometry" />
        </mxCell>
        <mxCell id="TvJVa0th-eADiuJ0yNtB-145" value="" style="group" vertex="1" connectable="0" parent="1">
          <mxGeometry x="9.999999999999993" y="-200" width="1128.5" height="740" as="geometry" />
        </mxCell>
        <mxCell id="TvJVa0th-eADiuJ0yNtB-99" value="" style="group" vertex="1" connectable="0" parent="TvJVa0th-eADiuJ0yNtB-145">
          <mxGeometry x="430" y="180" width="240" height="360" as="geometry" />
        </mxCell>
        <mxCell id="TvJVa0th-eADiuJ0yNtB-50" value="" style="rounded=0;whiteSpace=wrap;html=1;fontColor=#FFF7F7;strokeColor=#82B366;fillColor=none;strokeWidth=5;dashed=1;" vertex="1" parent="TvJVa0th-eADiuJ0yNtB-99">
          <mxGeometry width="240" height="360" as="geometry" />
        </mxCell>
        <mxCell id="TvJVa0th-eADiuJ0yNtB-98" value="" style="group" vertex="1" connectable="0" parent="TvJVa0th-eADiuJ0yNtB-99">
          <mxGeometry x="25" y="24" width="188.79999999999995" height="224" as="geometry" />
        </mxCell>
        <mxCell id="TvJVa0th-eADiuJ0yNtB-12" value="" style="shape=image;verticalLabelPosition=bottom;labelBackgroundColor=#ffffff;verticalAlign=top;aspect=fixed;imageAspect=0;image=https://www.zoltanraffai.com/blog/wp-content/uploads/2019/05/tomcat-springboot.png;" vertex="1" parent="TvJVa0th-eADiuJ0yNtB-98">
          <mxGeometry width="187.6" height="100" as="geometry" />
        </mxCell>
        <mxCell id="TvJVa0th-eADiuJ0yNtB-13" value="" style="shape=image;verticalLabelPosition=bottom;labelBackgroundColor=#ffffff;verticalAlign=top;aspect=fixed;imageAspect=0;image=https://www.zoltanraffai.com/blog/wp-content/uploads/2019/05/tomcat-springboot.png;" vertex="1" parent="TvJVa0th-eADiuJ0yNtB-98">
          <mxGeometry x="1.1999999999999886" y="106" width="187.6" height="100" as="geometry" />
        </mxCell>
        <mxCell id="TvJVa0th-eADiuJ0yNtB-53" value="" style="endArrow=none;dashed=1;html=1;dashPattern=1 3;strokeWidth=6;fontColor=#FFF7F7;exitX=0.55;exitY=-0.15;exitDx=0;exitDy=0;exitPerimeter=0;" edge="1" parent="TvJVa0th-eADiuJ0yNtB-98" source="TvJVa0th-eADiuJ0yNtB-52">
          <mxGeometry width="50" height="50" relative="1" as="geometry">
            <mxPoint x="95" y="284" as="sourcePoint" />
            <mxPoint x="95" y="224" as="targetPoint" />
          </mxGeometry>
        </mxCell>
        <mxCell id="TvJVa0th-eADiuJ0yNtB-140" value="" style="group" vertex="1" connectable="0" parent="TvJVa0th-eADiuJ0yNtB-145">
          <mxGeometry y="298.24" width="411" height="311.76" as="geometry" />
        </mxCell>
        <mxCell id="TvJVa0th-eADiuJ0yNtB-26" style="edgeStyle=orthogonalEdgeStyle;rounded=0;orthogonalLoop=1;jettySize=auto;html=1;fontColor=#FFF7F7;strokeWidth=3;" edge="1" parent="TvJVa0th-eADiuJ0yNtB-140">
          <mxGeometry relative="1" as="geometry">
            <mxPoint x="45.00000000000001" y="111.75999999999999" as="targetPoint" />
            <mxPoint x="44.50000000000001" y="211.76" as="sourcePoint" />
            <Array as="points">
              <mxPoint x="45.00000000000001" y="171.76" />
              <mxPoint x="45.00000000000001" y="171.76" />
            </Array>
          </mxGeometry>
        </mxCell>
        <mxCell id="TvJVa0th-eADiuJ0yNtB-29" value="" style="shape=image;verticalLabelPosition=bottom;labelBackgroundColor=#ffffff;verticalAlign=top;aspect=fixed;imageAspect=0;image=https://1000logos.net/wp-content/uploads/2018/11/GitHub-logo.png;" vertex="1" parent="TvJVa0th-eADiuJ0yNtB-140">
          <mxGeometry y="20.139999999999986" width="90" height="81.34" as="geometry" />
        </mxCell>
        <mxCell id="TvJVa0th-eADiuJ0yNtB-38" value="" style="shape=image;verticalLabelPosition=bottom;labelBackgroundColor=#ffffff;verticalAlign=top;imageAspect=0;image=https://codewordservices.com/wp-content/uploads/2016/01/Jenkins.png;aspect=fixed;" vertex="1" parent="TvJVa0th-eADiuJ0yNtB-140">
          <mxGeometry x="220" width="74.59" height="121.62" as="geometry" />
        </mxCell>
        <mxCell id="TvJVa0th-eADiuJ0yNtB-94" value="" style="group" vertex="1" connectable="0" parent="TvJVa0th-eADiuJ0yNtB-140">
          <mxGeometry x="7.105427357601002e-15" y="191.76" width="110" height="120" as="geometry" />
        </mxCell>
        <mxCell id="TvJVa0th-eADiuJ0yNtB-30" value="" style="shape=image;verticalLabelPosition=bottom;labelBackgroundColor=#ffffff;verticalAlign=top;aspect=fixed;imageAspect=0;image=https://upload.wikimedia.org/wikipedia/commons/thumb/9/9c/IntelliJ_IDEA_Icon.svg/1200px-IntelliJ_IDEA_Icon.svg.png;" vertex="1" parent="TvJVa0th-eADiuJ0yNtB-94">
          <mxGeometry y="30" width="90" height="90" as="geometry" />
        </mxCell>
        <mxCell id="TvJVa0th-eADiuJ0yNtB-40" value="&lt;font size=&quot;1&quot; face=&quot;Verdana&quot;&gt;&lt;b style=&quot;font-size: 15px&quot;&gt;PUSH&lt;/b&gt;&lt;/font&gt;" style="text;html=1;align=center;verticalAlign=middle;resizable=0;points=[];autosize=1;strokeColor=none;fontColor=#FFF7F7;" vertex="1" parent="TvJVa0th-eADiuJ0yNtB-94">
          <mxGeometry x="50" width="60" height="20" as="geometry" />
        </mxCell>
        <mxCell id="TvJVa0th-eADiuJ0yNtB-95" value="" style="group" vertex="1" connectable="0" parent="TvJVa0th-eADiuJ0yNtB-140">
          <mxGeometry x="86" y="26.139999999999986" width="114" height="69.12" as="geometry" />
        </mxCell>
        <mxCell id="TvJVa0th-eADiuJ0yNtB-34" value="" style="edgeStyle=orthogonalEdgeStyle;rounded=0;orthogonalLoop=1;jettySize=auto;html=1;fontColor=#FFF7F7;strokeWidth=3;" edge="1" parent="TvJVa0th-eADiuJ0yNtB-95">
          <mxGeometry relative="1" as="geometry">
            <mxPoint x="114" y="43.620000000000005" as="sourcePoint" />
            <mxPoint x="4" y="43.620000000000005" as="targetPoint" />
          </mxGeometry>
        </mxCell>
        <mxCell id="TvJVa0th-eADiuJ0yNtB-42" value="&lt;font face=&quot;Verdana&quot;&gt;&lt;span style=&quot;font-size: 15px&quot;&gt;&lt;b&gt;Jenkins CI&lt;/b&gt;&lt;/span&gt;&lt;/font&gt;" style="text;html=1;align=center;verticalAlign=middle;resizable=0;points=[];autosize=1;strokeColor=none;fontColor=#FFF7F7;" vertex="1" parent="TvJVa0th-eADiuJ0yNtB-95">
          <mxGeometry x="4" width="100" height="20" as="geometry" />
        </mxCell>
        <mxCell id="TvJVa0th-eADiuJ0yNtB-43" value="&lt;font face=&quot;Verdana&quot;&gt;&lt;span style=&quot;font-size: 15px&quot;&gt;&lt;b&gt;Test Result&lt;/b&gt;&lt;/span&gt;&lt;/font&gt;" style="text;html=1;align=center;verticalAlign=middle;resizable=0;points=[];autosize=1;strokeColor=none;fontColor=#FFF7F7;" vertex="1" parent="TvJVa0th-eADiuJ0yNtB-95">
          <mxGeometry y="49.120000000000005" width="110" height="20" as="geometry" />
        </mxCell>
        <mxCell id="TvJVa0th-eADiuJ0yNtB-46" value="" style="edgeStyle=orthogonalEdgeStyle;rounded=0;orthogonalLoop=1;jettySize=auto;html=1;fontColor=#FFF7F7;strokeWidth=3;" edge="1" parent="TvJVa0th-eADiuJ0yNtB-95">
          <mxGeometry relative="1" as="geometry">
            <mxPoint x="4" y="29.719999999999857" as="sourcePoint" />
            <mxPoint x="114" y="29.619999999999948" as="targetPoint" />
            <Array as="points">
              <mxPoint x="94" y="29.620000000000005" />
              <mxPoint x="94" y="29.620000000000005" />
            </Array>
          </mxGeometry>
        </mxCell>
        <mxCell id="TvJVa0th-eADiuJ0yNtB-97" value="" style="group" vertex="1" connectable="0" parent="TvJVa0th-eADiuJ0yNtB-140">
          <mxGeometry x="301" y="33.75999999999999" width="110" height="28" as="geometry" />
        </mxCell>
        <mxCell id="TvJVa0th-eADiuJ0yNtB-47" value="&lt;font face=&quot;Verdana&quot;&gt;&lt;span style=&quot;font-size: 15px&quot;&gt;&lt;b&gt;Jenkins CD&lt;/b&gt;&lt;/span&gt;&lt;/font&gt;" style="text;html=1;align=center;verticalAlign=middle;resizable=0;points=[];autosize=1;strokeColor=none;fontColor=#FFF7F7;" vertex="1" parent="TvJVa0th-eADiuJ0yNtB-97">
          <mxGeometry width="110" height="20" as="geometry" />
        </mxCell>
        <mxCell id="TvJVa0th-eADiuJ0yNtB-96" value="" style="edgeStyle=orthogonalEdgeStyle;rounded=0;orthogonalLoop=1;jettySize=auto;html=1;fontColor=#FFF7F7;strokeWidth=3;" edge="1" parent="TvJVa0th-eADiuJ0yNtB-97">
          <mxGeometry relative="1" as="geometry">
            <mxPoint y="28.09999999999991" as="sourcePoint" />
            <mxPoint x="110" y="28" as="targetPoint" />
            <Array as="points">
              <mxPoint x="90" y="28" />
              <mxPoint x="90" y="28" />
            </Array>
          </mxGeometry>
        </mxCell>
        <mxCell id="TvJVa0th-eADiuJ0yNtB-141" value="" style="group" vertex="1" connectable="0" parent="TvJVa0th-eADiuJ0yNtB-145">
          <mxGeometry x="430" y="560.5" width="240" height="179.5" as="geometry" />
        </mxCell>
        <mxCell id="TvJVa0th-eADiuJ0yNtB-103" value="" style="group" vertex="1" connectable="0" parent="TvJVa0th-eADiuJ0yNtB-141">
          <mxGeometry y="53.5" width="240" height="126" as="geometry" />
        </mxCell>
        <mxCell id="TvJVa0th-eADiuJ0yNtB-101" value="" style="group" vertex="1" connectable="0" parent="TvJVa0th-eADiuJ0yNtB-103">
          <mxGeometry width="100" height="126" as="geometry" />
        </mxCell>
        <mxCell id="TvJVa0th-eADiuJ0yNtB-20" value="" style="shape=image;verticalLabelPosition=bottom;labelBackgroundColor=#ffffff;verticalAlign=top;aspect=fixed;imageAspect=0;image=https://cdn.iconscout.com/icon/free/png-512/redis-3-1175053.png;" vertex="1" parent="TvJVa0th-eADiuJ0yNtB-101">
          <mxGeometry width="100" height="100" as="geometry" />
        </mxCell>
        <mxCell id="TvJVa0th-eADiuJ0yNtB-63" value="&lt;font face=&quot;Verdana&quot;&gt;&lt;span style=&quot;font-size: 15px&quot;&gt;&lt;b&gt;Cache&lt;/b&gt;&lt;/span&gt;&lt;/font&gt;" style="text;html=1;align=center;verticalAlign=middle;resizable=0;points=[];autosize=1;strokeColor=none;fontColor=#FFF7F7;" vertex="1" parent="TvJVa0th-eADiuJ0yNtB-101">
          <mxGeometry x="15" y="106" width="70" height="20" as="geometry" />
        </mxCell>
        <mxCell id="TvJVa0th-eADiuJ0yNtB-102" value="" style="group" vertex="1" connectable="0" parent="TvJVa0th-eADiuJ0yNtB-103">
          <mxGeometry x="140" width="100" height="126" as="geometry" />
        </mxCell>
        <mxCell id="TvJVa0th-eADiuJ0yNtB-21" value="" style="shape=image;verticalLabelPosition=bottom;labelBackgroundColor=#ffffff;verticalAlign=top;aspect=fixed;imageAspect=0;image=https://cdn.iconscout.com/icon/free/png-512/redis-3-1175053.png;" vertex="1" parent="TvJVa0th-eADiuJ0yNtB-102">
          <mxGeometry width="100" height="100" as="geometry" />
        </mxCell>
        <mxCell id="TvJVa0th-eADiuJ0yNtB-65" value="&lt;font face=&quot;Verdana&quot;&gt;&lt;span style=&quot;font-size: 15px&quot;&gt;&lt;b&gt;Session&lt;/b&gt;&lt;/span&gt;&lt;/font&gt;" style="text;html=1;align=center;verticalAlign=middle;resizable=0;points=[];autosize=1;strokeColor=none;fontColor=#FFF7F7;" vertex="1" parent="TvJVa0th-eADiuJ0yNtB-102">
          <mxGeometry x="11" y="106" width="80" height="20" as="geometry" />
        </mxCell>
        <mxCell id="TvJVa0th-eADiuJ0yNtB-104" value="" style="group" vertex="1" connectable="0" parent="TvJVa0th-eADiuJ0yNtB-141">
          <mxGeometry x="110.29999999999995" width="20" height="49.5" as="geometry" />
        </mxCell>
        <mxCell id="TvJVa0th-eADiuJ0yNtB-61" style="edgeStyle=orthogonalEdgeStyle;rounded=0;orthogonalLoop=1;jettySize=auto;html=1;fontColor=#FFF7F7;strokeWidth=3;" edge="1" parent="TvJVa0th-eADiuJ0yNtB-104">
          <mxGeometry relative="1" as="geometry">
            <mxPoint x="20" y="-10.5" as="targetPoint" />
            <mxPoint x="20" y="80.5" as="sourcePoint" />
            <Array as="points">
              <mxPoint x="20" y="49.5" />
              <mxPoint x="20" y="49.5" />
            </Array>
          </mxGeometry>
        </mxCell>
        <mxCell id="TvJVa0th-eADiuJ0yNtB-62" style="edgeStyle=orthogonalEdgeStyle;rounded=0;orthogonalLoop=1;jettySize=auto;html=1;fontColor=#FFF7F7;strokeWidth=3;" edge="1" parent="TvJVa0th-eADiuJ0yNtB-104">
          <mxGeometry relative="1" as="geometry">
            <mxPoint y="80.5" as="targetPoint" />
            <mxPoint y="-9.5" as="sourcePoint" />
            <Array as="points">
              <mxPoint />
              <mxPoint />
            </Array>
          </mxGeometry>
        </mxCell>
        <mxCell id="TvJVa0th-eADiuJ0yNtB-142" value="" style="group" vertex="1" connectable="0" parent="TvJVa0th-eADiuJ0yNtB-145">
          <mxGeometry x="420" width="270" height="139" as="geometry" />
        </mxCell>
        <mxCell id="TvJVa0th-eADiuJ0yNtB-93" value="" style="group" vertex="1" connectable="0" parent="TvJVa0th-eADiuJ0yNtB-142">
          <mxGeometry width="270" height="120" as="geometry" />
        </mxCell>
        <mxCell id="TvJVa0th-eADiuJ0yNtB-139" value="" style="group" vertex="1" connectable="0" parent="TvJVa0th-eADiuJ0yNtB-93">
          <mxGeometry width="270" height="120" as="geometry" />
        </mxCell>
        <mxCell id="TvJVa0th-eADiuJ0yNtB-90" value="" style="group" vertex="1" connectable="0" parent="TvJVa0th-eADiuJ0yNtB-139">
          <mxGeometry width="100" height="120" as="geometry" />
        </mxCell>
        <mxCell id="TvJVa0th-eADiuJ0yNtB-19" value="" style="shape=image;verticalLabelPosition=bottom;labelBackgroundColor=#ffffff;verticalAlign=top;aspect=fixed;imageAspect=0;image=https://findicons.com/files/icons/977/rrze/720/database_mysql.png;" vertex="1" parent="TvJVa0th-eADiuJ0yNtB-90">
          <mxGeometry width="100" height="100" as="geometry" />
        </mxCell>
        <mxCell id="TvJVa0th-eADiuJ0yNtB-56" value="&lt;font face=&quot;Verdana&quot;&gt;&lt;span style=&quot;font-size: 15px&quot;&gt;&lt;b&gt;Master&lt;/b&gt;&lt;/span&gt;&lt;/font&gt;" style="text;html=1;align=center;verticalAlign=middle;resizable=0;points=[];autosize=1;strokeColor=none;fontColor=#FFF7F7;" vertex="1" parent="TvJVa0th-eADiuJ0yNtB-90">
          <mxGeometry x="15" y="100" width="70" height="20" as="geometry" />
        </mxCell>
        <mxCell id="TvJVa0th-eADiuJ0yNtB-91" value="" style="group" vertex="1" connectable="0" parent="TvJVa0th-eADiuJ0yNtB-139">
          <mxGeometry x="170" width="100" height="120" as="geometry" />
        </mxCell>
        <mxCell id="TvJVa0th-eADiuJ0yNtB-18" value="" style="shape=image;verticalLabelPosition=bottom;labelBackgroundColor=#ffffff;verticalAlign=top;aspect=fixed;imageAspect=0;image=https://findicons.com/files/icons/977/rrze/720/database_mysql.png;" vertex="1" parent="TvJVa0th-eADiuJ0yNtB-91">
          <mxGeometry width="100" height="100" as="geometry" />
        </mxCell>
        <mxCell id="TvJVa0th-eADiuJ0yNtB-57" value="&lt;font face=&quot;Verdana&quot;&gt;&lt;span style=&quot;font-size: 15px&quot;&gt;&lt;b&gt;Slave&lt;/b&gt;&lt;/span&gt;&lt;/font&gt;" style="text;html=1;align=center;verticalAlign=middle;resizable=0;points=[];autosize=1;strokeColor=none;fontColor=#FFF7F7;" vertex="1" parent="TvJVa0th-eADiuJ0yNtB-91">
          <mxGeometry x="20" y="100" width="60" height="20" as="geometry" />
        </mxCell>
        <mxCell id="TvJVa0th-eADiuJ0yNtB-92" value="" style="group" vertex="1" connectable="0" parent="TvJVa0th-eADiuJ0yNtB-139">
          <mxGeometry x="88.79999999999995" y="49.5" width="80" height="22.5" as="geometry" />
        </mxCell>
        <mxCell id="TvJVa0th-eADiuJ0yNtB-54" value="" style="edgeStyle=orthogonalEdgeStyle;rounded=0;orthogonalLoop=1;jettySize=auto;html=1;fontColor=#FFF7F7;strokeWidth=3;" edge="1" parent="TvJVa0th-eADiuJ0yNtB-92">
          <mxGeometry relative="1" as="geometry">
            <mxPoint x="1.2000000000000455" as="sourcePoint" />
            <mxPoint x="91.20000000000005" y="-5.684341886080802e-14" as="targetPoint" />
            <Array as="points">
              <mxPoint x="71.20000000000005" />
              <mxPoint x="71.20000000000005" />
            </Array>
          </mxGeometry>
        </mxCell>
        <mxCell id="TvJVa0th-eADiuJ0yNtB-55" value="&lt;font face=&quot;Verdana&quot;&gt;&lt;span style=&quot;font-size: 15px&quot;&gt;&lt;b&gt;Replica&lt;/b&gt;&lt;/span&gt;&lt;/font&gt;" style="text;html=1;align=center;verticalAlign=middle;resizable=0;points=[];autosize=1;strokeColor=none;fontColor=#FFF7F7;" vertex="1" parent="TvJVa0th-eADiuJ0yNtB-92">
          <mxGeometry y="2.5" width="80" height="20" as="geometry" />
        </mxCell>
        <mxCell id="TvJVa0th-eADiuJ0yNtB-100" value="" style="group" vertex="1" connectable="0" parent="TvJVa0th-eADiuJ0yNtB-142">
          <mxGeometry x="120" y="89.5" width="150" height="49.5" as="geometry" />
        </mxCell>
        <mxCell id="TvJVa0th-eADiuJ0yNtB-58" style="edgeStyle=orthogonalEdgeStyle;rounded=0;orthogonalLoop=1;jettySize=auto;html=1;fontColor=#FFF7F7;strokeWidth=3;" edge="1" parent="TvJVa0th-eADiuJ0yNtB-100">
          <mxGeometry relative="1" as="geometry">
            <mxPoint x="20" y="-10.5" as="targetPoint" />
            <mxPoint x="20" y="80.5" as="sourcePoint" />
            <Array as="points">
              <mxPoint x="20" y="49.5" />
              <mxPoint x="20" y="49.5" />
            </Array>
          </mxGeometry>
        </mxCell>
        <mxCell id="TvJVa0th-eADiuJ0yNtB-60" style="edgeStyle=orthogonalEdgeStyle;rounded=0;orthogonalLoop=1;jettySize=auto;html=1;fontColor=#FFF7F7;strokeWidth=3;" edge="1" parent="TvJVa0th-eADiuJ0yNtB-100">
          <mxGeometry relative="1" as="geometry">
            <mxPoint y="80.5" as="targetPoint" />
            <mxPoint y="-9.5" as="sourcePoint" />
            <Array as="points">
              <mxPoint />
              <mxPoint />
            </Array>
          </mxGeometry>
        </mxCell>
        <mxCell id="TvJVa0th-eADiuJ0yNtB-143" value="" style="group" vertex="1" connectable="0" parent="TvJVa0th-eADiuJ0yNtB-145">
          <mxGeometry x="680" y="30" width="280.47" height="153.92000000000007" as="geometry" />
        </mxCell>
        <mxCell id="TvJVa0th-eADiuJ0yNtB-24" value="" style="shape=image;verticalLabelPosition=bottom;labelBackgroundColor=#ffffff;verticalAlign=top;aspect=fixed;imageAspect=0;image=https://seargin.com/wp-content/uploads/2019/05/kafka-logo-wide.png;" vertex="1" parent="TvJVa0th-eADiuJ0yNtB-143">
          <mxGeometry x="90" width="190.47" height="100" as="geometry" />
        </mxCell>
        <mxCell id="TvJVa0th-eADiuJ0yNtB-126" value="" style="group" vertex="1" connectable="0" parent="TvJVa0th-eADiuJ0yNtB-143">
          <mxGeometry y="80" width="205.24" height="73.92000000000007" as="geometry" />
        </mxCell>
        <mxCell id="TvJVa0th-eADiuJ0yNtB-117" value="" style="group" vertex="1" connectable="0" parent="TvJVa0th-eADiuJ0yNtB-126">
          <mxGeometry width="100" height="73.92000000000007" as="geometry" />
        </mxCell>
        <mxCell id="TvJVa0th-eADiuJ0yNtB-108" value="" style="endArrow=classic;html=1;fontColor=#FFF7F7;strokeWidth=3;" edge="1" parent="TvJVa0th-eADiuJ0yNtB-117">
          <mxGeometry width="50" height="50" relative="1" as="geometry">
            <mxPoint y="60" as="sourcePoint" />
            <mxPoint x="90" as="targetPoint" />
          </mxGeometry>
        </mxCell>
        <mxCell id="TvJVa0th-eADiuJ0yNtB-114" value="" style="endArrow=classic;html=1;fontColor=#FFF7F7;strokeWidth=3;entryX=0.917;entryY=0.222;entryDx=0;entryDy=0;entryPerimeter=0;" edge="1" parent="TvJVa0th-eADiuJ0yNtB-117">
          <mxGeometry width="50" height="50" relative="1" as="geometry">
            <mxPoint x="93" y="14" as="sourcePoint" />
            <mxPoint x="2.9999999999998863" y="73.92000000000007" as="targetPoint" />
          </mxGeometry>
        </mxCell>
        <mxCell id="TvJVa0th-eADiuJ0yNtB-122" value="&lt;b&gt;Produce &amp;amp; &lt;br&gt;Consume&lt;/b&gt;" style="text;html=1;strokeColor=none;fillColor=none;align=center;verticalAlign=middle;whiteSpace=wrap;rounded=0;dashed=1;fontColor=#FFF7F7;fontSize=15;fontFamily=Verdana;" vertex="1" parent="TvJVa0th-eADiuJ0yNtB-126">
          <mxGeometry x="25.24000000000001" y="40" width="180" height="20" as="geometry" />
        </mxCell>
        <mxCell id="TvJVa0th-eADiuJ0yNtB-144" value="" style="group" vertex="1" connectable="0" parent="TvJVa0th-eADiuJ0yNtB-145">
          <mxGeometry x="680" y="280" width="448.5" height="420" as="geometry" />
        </mxCell>
        <mxCell id="TvJVa0th-eADiuJ0yNtB-23" value="" style="shape=image;verticalLabelPosition=bottom;labelBackgroundColor=#ffffff;verticalAlign=top;aspect=fixed;imageAspect=0;image=https://img.icons8.com/ios/452/groups.png;" vertex="1" parent="TvJVa0th-eADiuJ0yNtB-144">
          <mxGeometry x="322" y="15.800000000000011" width="126.5" height="126.5" as="geometry" />
        </mxCell>
        <mxCell id="TvJVa0th-eADiuJ0yNtB-89" value="" style="group" vertex="1" connectable="0" parent="TvJVa0th-eADiuJ0yNtB-144">
          <mxGeometry x="104.24000000000001" y="29.049999999999997" width="101" height="134" as="geometry" />
        </mxCell>
        <mxCell id="TvJVa0th-eADiuJ0yNtB-22" value="" style="shape=image;verticalLabelPosition=bottom;labelBackgroundColor=#ffffff;verticalAlign=top;aspect=fixed;imageAspect=0;image=https://quiksite.com/wp-content/uploads/2016/09/Nginx-Logo-02.png;" vertex="1" parent="TvJVa0th-eADiuJ0yNtB-89">
          <mxGeometry width="100" height="100" as="geometry" />
        </mxCell>
        <mxCell id="TvJVa0th-eADiuJ0yNtB-80" value="&lt;font face=&quot;Verdana&quot;&gt;&lt;span style=&quot;font-size: 15px&quot;&gt;&lt;b&gt;Load&lt;br&gt;Balancing&lt;br&gt;&lt;/b&gt;&lt;/span&gt;&lt;/font&gt;" style="text;html=1;align=center;verticalAlign=middle;resizable=0;points=[];autosize=1;strokeColor=none;fontColor=#FFF7F7;" vertex="1" parent="TvJVa0th-eADiuJ0yNtB-89">
          <mxGeometry x="1" y="94.00000000000001" width="100" height="40" as="geometry" />
        </mxCell>
        <mxCell id="TvJVa0th-eADiuJ0yNtB-105" value="" style="group" vertex="1" connectable="0" parent="TvJVa0th-eADiuJ0yNtB-144">
          <mxGeometry x="10" width="94.24000000000001" height="160" as="geometry" />
        </mxCell>
        <mxCell id="TvJVa0th-eADiuJ0yNtB-73" value="" style="endArrow=none;html=1;fontColor=#FFF7F7;strokeWidth=3;" edge="1" parent="TvJVa0th-eADiuJ0yNtB-105">
          <mxGeometry width="50" height="50" relative="1" as="geometry">
            <mxPoint x="60" y="80" as="sourcePoint" />
            <mxPoint x="94.24000000000001" y="79.5" as="targetPoint" />
          </mxGeometry>
        </mxCell>
        <mxCell id="TvJVa0th-eADiuJ0yNtB-75" value="" style="endArrow=none;html=1;fontColor=#FFF7F7;strokeWidth=3;" edge="1" parent="TvJVa0th-eADiuJ0yNtB-105">
          <mxGeometry width="50" height="50" relative="1" as="geometry">
            <mxPoint x="60" y="80" as="sourcePoint" />
            <mxPoint x="60" as="targetPoint" />
          </mxGeometry>
        </mxCell>
        <mxCell id="TvJVa0th-eADiuJ0yNtB-76" value="" style="endArrow=none;html=1;fontColor=#FFF7F7;strokeWidth=3;" edge="1" parent="TvJVa0th-eADiuJ0yNtB-105">
          <mxGeometry width="50" height="50" relative="1" as="geometry">
            <mxPoint x="60" y="160" as="sourcePoint" />
            <mxPoint x="60" y="80" as="targetPoint" />
          </mxGeometry>
        </mxCell>
        <mxCell id="TvJVa0th-eADiuJ0yNtB-77" value="" style="edgeStyle=orthogonalEdgeStyle;rounded=0;orthogonalLoop=1;jettySize=auto;html=1;fontColor=#FFF7F7;strokeWidth=3;" edge="1" parent="TvJVa0th-eADiuJ0yNtB-105">
          <mxGeometry relative="1" as="geometry">
            <mxPoint x="61" as="sourcePoint" />
            <mxPoint x="1" as="targetPoint" />
          </mxGeometry>
        </mxCell>
        <mxCell id="TvJVa0th-eADiuJ0yNtB-78" value="" style="edgeStyle=orthogonalEdgeStyle;rounded=0;orthogonalLoop=1;jettySize=auto;html=1;fontColor=#FFF7F7;strokeWidth=3;" edge="1" parent="TvJVa0th-eADiuJ0yNtB-105">
          <mxGeometry relative="1" as="geometry">
            <mxPoint x="60" y="79.5" as="sourcePoint" />
            <mxPoint y="79.5" as="targetPoint" />
          </mxGeometry>
        </mxCell>
        <mxCell id="TvJVa0th-eADiuJ0yNtB-79" value="" style="edgeStyle=orthogonalEdgeStyle;rounded=0;orthogonalLoop=1;jettySize=auto;html=1;fontColor=#FFF7F7;strokeWidth=3;" edge="1" parent="TvJVa0th-eADiuJ0yNtB-105">
          <mxGeometry relative="1" as="geometry">
            <mxPoint x="61" y="160" as="sourcePoint" />
            <mxPoint x="1" y="160" as="targetPoint" />
          </mxGeometry>
        </mxCell>
        <mxCell id="TvJVa0th-eADiuJ0yNtB-106" value="" style="group" vertex="1" connectable="0" parent="TvJVa0th-eADiuJ0yNtB-144">
          <mxGeometry x="200" y="44.379999999999995" width="110" height="69.12" as="geometry" />
        </mxCell>
        <mxCell id="TvJVa0th-eADiuJ0yNtB-69" value="" style="edgeStyle=orthogonalEdgeStyle;rounded=0;orthogonalLoop=1;jettySize=auto;html=1;fontColor=#FFF7F7;strokeWidth=3;" edge="1" parent="TvJVa0th-eADiuJ0yNtB-106">
          <mxGeometry relative="1" as="geometry">
            <mxPoint x="110" y="43.620000000000005" as="sourcePoint" />
            <mxPoint y="43.620000000000005" as="targetPoint" />
          </mxGeometry>
        </mxCell>
        <mxCell id="TvJVa0th-eADiuJ0yNtB-70" value="" style="edgeStyle=orthogonalEdgeStyle;rounded=0;orthogonalLoop=1;jettySize=auto;html=1;fontColor=#FFF7F7;strokeWidth=3;" edge="1" parent="TvJVa0th-eADiuJ0yNtB-106">
          <mxGeometry relative="1" as="geometry">
            <mxPoint y="29.719999999999914" as="sourcePoint" />
            <mxPoint x="110" y="29.620000000000005" as="targetPoint" />
            <Array as="points">
              <mxPoint x="90" y="29.620000000000005" />
              <mxPoint x="90" y="29.620000000000005" />
            </Array>
          </mxGeometry>
        </mxCell>
        <mxCell id="TvJVa0th-eADiuJ0yNtB-71" value="&lt;font face=&quot;Verdana&quot;&gt;&lt;span style=&quot;font-size: 15px&quot;&gt;&lt;b&gt;Response&lt;/b&gt;&lt;/span&gt;&lt;/font&gt;" style="text;html=1;align=center;verticalAlign=middle;resizable=0;points=[];autosize=1;strokeColor=none;fontColor=#FFF7F7;" vertex="1" parent="TvJVa0th-eADiuJ0yNtB-106">
          <mxGeometry x="4" width="100" height="20" as="geometry" />
        </mxCell>
        <mxCell id="TvJVa0th-eADiuJ0yNtB-72" value="&lt;font face=&quot;Verdana&quot;&gt;&lt;span style=&quot;font-size: 15px&quot;&gt;&lt;b&gt;Request&lt;/b&gt;&lt;/span&gt;&lt;/font&gt;" style="text;html=1;align=center;verticalAlign=middle;resizable=0;points=[];autosize=1;strokeColor=none;fontColor=#FFF7F7;" vertex="1" parent="TvJVa0th-eADiuJ0yNtB-106">
          <mxGeometry x="15" y="49.120000000000005" width="80" height="20" as="geometry" />
        </mxCell>
        <mxCell id="TvJVa0th-eADiuJ0yNtB-121" value="" style="group" vertex="1" connectable="0" parent="TvJVa0th-eADiuJ0yNtB-144">
          <mxGeometry y="160" width="385" height="260" as="geometry" />
        </mxCell>
        <mxCell id="TvJVa0th-eADiuJ0yNtB-87" value="" style="endArrow=classic;html=1;fontColor=#FFF7F7;strokeWidth=3;" edge="1" parent="TvJVa0th-eADiuJ0yNtB-121">
          <mxGeometry width="50" height="50" relative="1" as="geometry">
            <mxPoint y="110" as="sourcePoint" />
            <mxPoint x="110" y="161.25" as="targetPoint" />
          </mxGeometry>
        </mxCell>
        <mxCell id="TvJVa0th-eADiuJ0yNtB-88" value="" style="group" vertex="1" connectable="0" parent="TvJVa0th-eADiuJ0yNtB-121">
          <mxGeometry x="79.24000000000001" y="100" width="150" height="160" as="geometry" />
        </mxCell>
        <mxCell id="TvJVa0th-eADiuJ0yNtB-83" value="" style="shape=image;verticalLabelPosition=bottom;labelBackgroundColor=#ffffff;verticalAlign=top;aspect=fixed;imageAspect=0;image=https://miro.medium.com/max/1024/1*HaAps8GidfAKdee7OrjZ2w.png;" vertex="1" parent="TvJVa0th-eADiuJ0yNtB-88">
          <mxGeometry width="150" height="150" as="geometry" />
        </mxCell>
        <mxCell id="TvJVa0th-eADiuJ0yNtB-84" value="&lt;font face=&quot;Verdana&quot; size=&quot;1&quot;&gt;&lt;b style=&quot;font-size: 20px&quot;&gt;Firebase&lt;/b&gt;&lt;/font&gt;" style="text;html=1;align=center;verticalAlign=middle;resizable=0;points=[];autosize=1;strokeColor=none;fontColor=#FFF7F7;" vertex="1" parent="TvJVa0th-eADiuJ0yNtB-88">
          <mxGeometry x="21" y="140" width="110" height="20" as="geometry" />
        </mxCell>
        <mxCell id="TvJVa0th-eADiuJ0yNtB-107" value="" style="endArrow=classic;html=1;fontColor=#FFF7F7;strokeWidth=3;" edge="1" parent="TvJVa0th-eADiuJ0yNtB-121">
          <mxGeometry width="50" height="50" relative="1" as="geometry">
            <mxPoint x="200" y="160" as="sourcePoint" />
            <mxPoint x="350" as="targetPoint" />
          </mxGeometry>
        </mxCell>
        <mxCell id="TvJVa0th-eADiuJ0yNtB-119" value="&lt;font style=&quot;font-size: 15px&quot; face=&quot;Verdana&quot;&gt;&lt;b&gt;Push Alarm&lt;br&gt;&lt;/b&gt;&lt;/font&gt;" style="text;html=1;strokeColor=none;fillColor=none;align=center;verticalAlign=middle;whiteSpace=wrap;rounded=0;dashed=1;fontColor=#FFF7F7;" vertex="1" parent="TvJVa0th-eADiuJ0yNtB-121">
          <mxGeometry x="265" y="85" width="120" height="20" as="geometry" />
        </mxCell>
        <mxCell id="TvJVa0th-eADiuJ0yNtB-120" value="&lt;font face=&quot;Verdana&quot;&gt;&lt;span style=&quot;font-size: 15px&quot;&gt;&lt;b&gt;Push Alarm Request&lt;/b&gt;&lt;/span&gt;&lt;/font&gt;" style="text;html=1;strokeColor=none;fillColor=none;align=center;verticalAlign=middle;whiteSpace=wrap;rounded=0;dashed=1;fontColor=#FFF7F7;" vertex="1" parent="TvJVa0th-eADiuJ0yNtB-121">
          <mxGeometry x="30" y="100" width="100" height="20" as="geometry" />
        </mxCell>
      </root>
    </mxGraphModel>
  </diagram>
</mxfile>
